<svg width="32" height="40" viewBox="0 0 32 40" fill="none" xmlns="http://www.w3.org/2000/svg">
<path d="M15.5119 12.2137L15.4958 12.2137C15.2811 12.2144 15.1067 12.1487 14.9759 12.0293C14.8477 11.9121 14.7739 11.7546 14.736 11.5911C14.661 11.2678 14.7168 10.8833 14.8229 10.5982M15.5119 12.2137L16.1796 11.094C16.2181 10.9693 16.2815 10.8564 16.354 10.7273C16.3647 10.7083 16.3756 10.6889 16.3866 10.6691L16.3866 10.6691C16.6088 10.2698 16.6849 9.92973 16.6751 9.6269C16.6653 9.32617 16.5709 9.07508 16.4749 8.85738C16.4529 8.80727 16.4312 8.75984 16.4105 8.71438C16.3375 8.55454 16.2757 8.41909 16.2453 8.27756C16.2095 8.11048 16.2207 7.94113 16.3424 7.73644L16.3425 7.73637C16.4916 7.48537 16.561 7.18413 16.4861 6.93413C16.4476 6.80563 16.3704 6.69105 16.2487 6.6125C16.1282 6.53474 15.976 6.49995 15.7991 6.50759L15.7854 6.50818L15.772 6.51125C15.3441 6.60949 15.064 6.97815 14.9112 7.37151C14.7574 7.76735 14.7154 8.22849 14.7945 8.57723L14.7946 8.57739C14.8364 8.76085 14.9215 8.93196 14.9968 9.08322C15.0111 9.11196 15.025 9.13997 15.0382 9.16722C15.1253 9.34673 15.1879 9.50364 15.1874 9.67209V9.6725C15.1874 9.81849 15.1366 9.95643 15.0612 10.1089C15.0403 10.1512 15.0164 10.1964 14.9914 10.2436C14.9324 10.355 14.8676 10.4775 14.8229 10.5982M15.5119 12.2137L15.5276 12.2102M15.5119 12.2137L15.5276 12.2102M14.8229 10.5982L14.9634 10.6505L14.8229 10.5984C14.8229 10.5983 14.8229 10.5983 14.8229 10.5982ZM15.5276 12.2102C15.6905 12.1743 15.8155 12.1104 15.9076 12.017M15.5276 12.2102L15.9076 12.017M15.9076 12.017C15.9994 11.924 16.0469 11.8134 16.075 11.7052M15.9076 12.017L16.075 11.7052M16.075 11.7052C16.0994 11.6114 16.1112 11.5102 16.1219 11.4184M16.075 11.7052L16.1219 11.4184M16.1219 11.4184C16.1232 11.4073 16.1245 11.3964 16.1258 11.3856M16.1219 11.4184L16.1258 11.3856M16.1258 11.3856C16.1382 11.2808 16.1516 11.1848 16.1796 11.094L16.1258 11.3856Z" fill="#FFAB2E" stroke="#FFAB2E" stroke-width="0.3"/>
<path d="M12.7988 8.2408L12.9474 8.22043C12.9258 8.06319 12.9931 7.92947 13.0854 7.74614C13.0938 7.72949 13.1024 7.71244 13.1111 7.69492C13.2087 7.49934 13.3192 7.24933 13.1926 6.94977L13.1925 6.94949C13.0656 6.65084 12.7901 6.51439 12.4986 6.52139L12.4884 6.52164L12.4784 6.52325C12.0835 6.58675 11.8204 6.95336 11.6712 7.3223C11.5189 7.69919 11.4579 8.14259 11.5099 8.45738L11.51 8.45769C11.5485 8.68774 11.651 8.89419 11.7405 9.07448C11.7484 9.0905 11.7563 9.10632 11.764 9.12193C11.8627 9.3222 11.9375 9.49099 11.9432 9.66915L11.9432 9.66943C11.9502 9.87844 11.8593 10.0667 11.7372 10.3125L11.7357 10.3156C11.6184 10.5516 11.48 10.8304 11.4593 11.1798L11.4593 11.1799C11.4445 11.4326 11.4862 11.689 11.6159 11.8864C11.7513 12.0923 11.9722 12.2173 12.2705 12.2125L12.2865 12.2122L12.302 12.2086C12.4657 12.1706 12.5917 12.1124 12.6846 12.0277C12.7795 11.9412 12.8273 11.8384 12.8537 11.735C12.8758 11.6479 12.8842 11.5531 12.8917 11.4676C12.8926 11.4569 12.8936 11.4464 12.8945 11.4361C12.9034 11.3378 12.9139 11.2438 12.9409 11.1485L12.7966 11.1077L12.9408 11.1487C12.9957 10.9554 13.0703 10.7905 13.1473 10.6298C13.1574 10.6087 13.1676 10.5875 13.1778 10.5662C13.2442 10.4288 13.3121 10.288 13.361 10.1408C13.4801 9.78251 13.4852 9.39296 13.2101 8.82157L13.0749 8.88664M12.7988 8.2408L12.9474 8.22027C12.96 8.31186 12.9962 8.40489 13.0462 8.50652C13.0699 8.5546 13.0956 8.60229 13.1224 8.65227L13.1267 8.66024C13.1546 8.71217 13.1838 8.76674 13.2102 8.82174L13.0749 8.88664M12.7988 8.2408C12.8222 8.41037 12.9072 8.56865 12.9899 8.72257C13.0195 8.77771 13.0488 8.83229 13.0749 8.88664M12.7988 8.2408C12.7705 8.03475 12.8601 7.85824 12.9487 7.68373C13.0562 7.472 13.1622 7.2632 13.0545 7.00815C12.9556 6.77551 12.7431 6.66556 12.5022 6.67135C11.8761 6.77203 11.5647 7.86927 11.6579 8.43292L13.0749 8.88664M12.2681 12.0625C11.7693 12.0706 11.5817 11.6563 11.609 11.1887C11.6279 10.8698 11.7549 10.614 11.8742 10.3739C11.9916 10.1373 12.1016 9.91597 12.0931 9.66438L12.2681 12.0625Z" fill="#FFAB2E" stroke="#FFAB2E" stroke-width="0.3"/>
<path d="M18.7937 12.2069L18.7768 12.2084C18.5808 12.2255 18.4035 12.1822 18.2589 12.0772C18.1155 11.9731 18.017 11.8177 17.9592 11.6326L17.9592 11.6324C17.7833 11.0665 18.0328 10.568 18.2452 10.1438C18.2661 10.1021 18.2866 10.0611 18.3063 10.0208L18.3063 10.0208C18.3733 9.88408 18.3993 9.77417 18.4029 9.68028C18.4065 9.58653 18.3882 9.49994 18.3546 9.40857C18.3247 9.327 18.2849 9.24699 18.2384 9.15364C18.231 9.13874 18.2234 9.12351 18.2157 9.10787C18.161 8.99731 18.1015 8.87235 18.055 8.72749L18.055 8.72738C17.9435 8.37882 17.9535 7.9043 18.0813 7.48815C18.2084 7.07469 18.4662 6.6762 18.8885 6.5411L18.9043 6.53605L18.9208 6.53457C19.2335 6.50658 19.5859 6.62571 19.7114 6.99676C19.7765 7.18673 19.7456 7.35543 19.6898 7.501C19.6625 7.57218 19.6284 7.64004 19.5964 7.70184C19.5908 7.71279 19.5852 7.72352 19.5797 7.73407C19.5532 7.78514 19.5289 7.83196 19.5074 7.8798L19.5072 7.88013C19.4343 8.04114 19.4387 8.18849 19.4842 8.34899C19.5186 8.47039 19.5721 8.58752 19.6332 8.72121C19.6588 8.77726 19.6858 8.83621 19.7132 8.89961C19.8022 9.1053 19.8867 9.34024 19.8987 9.61342C19.9108 9.88902 19.8489 10.1926 19.6629 10.5376L18.7937 12.2069ZM18.7937 12.2069L18.8099 12.2017M18.7937 12.2069L18.8099 12.2017M18.8099 12.2017C18.9665 12.1511 19.0839 12.0817 19.167 11.9881C19.2511 11.8936 19.2887 11.7872 19.3077 11.6843C19.322 11.6071 19.3269 11.5227 19.3313 11.4459C19.3325 11.4261 19.3336 11.4069 19.3348 11.3883C19.3413 11.2924 19.3513 11.2011 19.3789 11.1094M18.8099 12.2017L19.3789 11.1094M19.3789 11.1094C19.423 10.9646 19.4966 10.8343 19.5782 10.6899C19.6058 10.6411 19.6343 10.5907 19.6628 10.5376L19.3789 11.1094Z" fill="#FFAB2E" stroke="#FFAB2E" stroke-width="0.3"/>
<path d="M7.60612 13.5269L7.60671 13.5268C7.76662 13.5007 7.98382 13.4977 8.19158 13.5001C8.29093 13.5013 8.38658 13.5037 8.47644 13.5059C8.58306 13.5085 8.68154 13.511 8.76837 13.511H8.76845L11.1217 13.5121L11.1218 13.5121L22.8308 13.5098L22.8309 13.5098C22.9844 13.5098 23.1448 13.5073 23.3084 13.5047C23.7009 13.4986 24.1115 13.4922 24.4894 13.5195L24.4894 13.5195C24.8994 13.5492 25.1502 13.9007 25.1382 14.2535C25.132 14.433 25.059 14.6142 24.9092 14.7583C24.7844 14.8784 24.6119 14.9676 24.3924 15.0136C24.3964 15.2455 24.3981 15.4768 24.3975 15.708C24.8356 15.6945 25.2776 15.6983 25.7149 15.702C25.9353 15.7039 26.1546 15.7058 26.3715 15.7054L26.3718 15.7054C26.5603 15.7054 26.7241 15.6972 26.8733 15.6896C26.9425 15.6861 27.0086 15.6828 27.0726 15.6805C27.2641 15.6736 27.4462 15.6755 27.5963 15.7326C27.7624 15.7958 27.8742 15.9194 27.9396 16.1106C28.0014 16.2913 28.0244 16.5381 28.0229 16.8665V16.8667C28.021 17.2427 28.0101 17.5231 27.971 17.7271C27.9315 17.9332 27.8573 18.0928 27.7031 18.1876C27.5611 18.275 27.3783 18.2882 27.1805 18.2882C27.0915 18.2882 26.9918 18.2851 26.883 18.2818C26.8664 18.2813 26.8496 18.2808 26.8326 18.2803C26.703 18.2765 26.5588 18.2727 26.3969 18.2728H26.3968C26.1985 18.2728 25.9993 18.2738 25.7997 18.2747C25.3224 18.277 24.8424 18.2793 24.3643 18.2686L24.3764 22.8284L24.3764 22.8288C24.3764 22.8544 24.3764 22.88 24.3764 22.9057C24.3768 23.2895 24.3772 23.6871 24.2948 24.0849C24.2948 24.0849 24.2948 24.0849 24.2948 24.0849L24.1479 24.0545C23.8309 25.5869 22.5639 26.6425 21.0469 26.7906L7.60612 13.5269ZM7.60612 13.5269C7.42912 13.5565 7.2766 13.6627 7.17026 13.7968C7.06376 13.9311 6.99474 14.1042 6.99565 14.283C6.99657 14.466 7.07127 14.6488 7.24059 14.7881C7.38033 14.9031 7.57635 14.9819 7.83163 15.0161M7.60612 13.5269L7.83163 15.0161M7.83163 15.0161C7.82732 15.1375 7.82955 15.2572 7.83176 15.3725L7.83185 15.3772C7.83403 15.4908 7.83612 15.6003 7.83304 15.7082C7.35457 15.7026 6.87541 15.7036 6.39772 15.7047C6.21039 15.7051 6.0233 15.7055 5.83655 15.7055C5.72851 15.7055 5.61715 15.6989 5.5 15.692C5.44394 15.6887 5.38656 15.6853 5.32759 15.6825C5.15203 15.6742 4.96694 15.6718 4.79879 15.7017C4.62943 15.7318 4.46262 15.7973 4.33905 15.9366C4.21473 16.0767 4.15243 16.2708 4.15021 16.5207L7.83163 15.0161ZM7.83891 18.2711L7.84001 22.7905L7.17762 18.2728C7.26243 18.2728 7.3462 18.272 7.42929 18.2713C7.56719 18.27 7.70319 18.2688 7.83891 18.2711ZM5.67338 18.274L7.1775 18.2728L5.67306 18.274H5.67328C5.67331 18.274 5.67335 18.274 5.67338 18.274Z" fill="#FFAB2E" stroke="#FFAB2E" stroke-width="0.3"/>
</svg>
